<svg width="100" height="100" viewBox="0 0 100 100" fill="none" xmlns="http://www.w3.org/2000/svg">
<g clip-path="url(#clip0_655_2)">
<rect y="30" width="15" height="40" fill="black"/>
<path fill-rule="evenodd" clip-rule="evenodd" d="M15 0H0V33.3682C-11.8247 38.9855 -20 51.038 -20 65C-20 78.962 -11.8247 91.0145 0 96.6318V100H10H15H45H50H53.3682C51.2085 95.4537 50 90.368 50 85V65C50 84.33 65.67 100 85 100C90.368 100 95.4537 98.7915 100 96.6318V33.3682C95.4537 31.2085 90.368 30 85 30C65.67 30 50 45.67 50 65C50 45.67 34.33 30 15 30V29.9915C7.22339 29.728 1 23.3408 1 15.5C1 7.65922 7.22339 1.27198 15 1.00846V0Z" fill="black"/>
</g>
<defs>
<clipPath id="clip0_655_2">
<rect width="100" height="100" fill="white"/>
</clipPath>
</defs>
</svg>
